<svg width="20" height="22" viewBox="0 0 20 22" fill="none" xmlns="http://www.w3.org/2000/svg">
<path d="M17 2H18C19.1 2 20 2.9 20 4V11C20 11.5523 19.5523 12 19 12C18.4477 12 18 11.5523 18 11V7H2V19C2 19.5523 2.44771 20 3 20H9C9.55228 20 10 20.4477 10 21C10 21.5523 9.55228 22 9 22H2C0.9 22 0 21.1 0 20V4C0 2.9 0.9 2 2 2H3V1C3 0.447715 3.44771 0 4 0C4.55228 0 5 0.447715 5 1V2H15V1C15 0.447715 15.4477 0 16 0C16.5523 0 17 0.447715 17 1V2Z" fill="#FF0A33"/>
<path d="M14 13C14 12.4477 14.4477 12 15 12C15.5523 12 16 12.4477 16 13V16H19C19.5523 16 20 16.4477 20 17C20 17.5523 19.5523 18 19 18H16C16 18 16 20.4477 16 21C16 21.5523 15.5523 22 15 22C14.4477 22 14 21.5523 14 21V18H11C10.4477 18 10 17.5523 10 17C10 16.4477 10.4477 16 11 16H14V13Z" fill="#FF0A33"/>
</svg>
