<svg width="20" height="20" viewBox="0 0 20 20" fill="none" xmlns="http://www.w3.org/2000/svg">
<path fill-rule="evenodd" clip-rule="evenodd" d="M16.6673 8.47615C16.6673 4.00948 13.1149 1.66663 10.0007 1.66663C6.88637 1.66663 3.33398 4.00948 3.33398 8.47615C3.33398 11.3142 5.36256 14.2952 9.4197 17.419C9.76256 17.6857 10.2387 17.6857 10.5816 17.419C14.6387 14.3047 16.6673 11.3142 16.6673 8.47615ZM10.0007 11.1904C11.5786 11.1904 12.8578 9.91125 12.8578 8.33329C12.8578 6.75534 11.5786 5.47615 10.0007 5.47615C8.42269 5.47615 7.14351 6.75534 7.14351 8.33329C7.14351 9.91125 8.42269 11.1904 10.0007 11.1904Z" fill="#7E7E80"/>
</svg>
