<svg width="14" height="14" viewBox="0 0 14 14" fill="none" xmlns="http://www.w3.org/2000/svg">
<path d="M6.99967 0.333252C3.31967 0.333252 0.333008 3.31992 0.333008 6.99992C0.333008 10.6799 3.31967 13.6666 6.99967 13.6666C10.6797 13.6666 13.6663 10.6799 13.6663 6.99992C13.6663 3.31992 10.6797 0.333252 6.99967 0.333252ZM6.33301 12.2866C3.69967 11.9599 1.66634 9.71992 1.66634 6.99992C1.66634 6.58659 1.71967 6.19325 1.80634 5.80659L4.99967 8.99992V9.66659C4.99967 10.3999 5.59967 10.9999 6.33301 10.9999V12.2866ZM10.933 10.5933C10.7597 10.0533 10.2663 9.66659 9.66634 9.66659H8.99967V7.66659C8.99967 7.29992 8.69967 6.99992 8.33301 6.99992H4.33301V5.66659H5.66634C6.03301 5.66659 6.33301 5.36659 6.33301 4.99992V3.66659H7.66634C8.39967 3.66659 8.99967 3.06659 8.99967 2.33325V2.05992C10.953 2.85325 12.333 4.76659 12.333 6.99992C12.333 8.38659 11.7997 9.64659 10.933 10.5933Z" fill="#141414"/>
</svg>
