<svg width="16" height="16" viewBox="0 0 16 16" fill="none" xmlns="http://www.w3.org/2000/svg">
<path d="M7.99967 1.33337C4.31967 1.33337 1.33301 4.32004 1.33301 8.00004C1.33301 11.68 4.31967 14.6667 7.99967 14.6667C11.6797 14.6667 14.6663 11.68 14.6663 8.00004C14.6663 4.32004 11.6797 1.33337 7.99967 1.33337ZM7.33301 13.2867C4.69967 12.96 2.66634 10.72 2.66634 8.00004C2.66634 7.58671 2.71967 7.19337 2.80634 6.80671L5.99967 10V10.6667C5.99967 11.4 6.59967 12 7.33301 12V13.2867ZM11.933 11.5934C11.7597 11.0534 11.2663 10.6667 10.6663 10.6667H9.99967V8.66671C9.99967 8.30004 9.69967 8.00004 9.33301 8.00004H5.33301V6.66671H6.66634C7.03301 6.66671 7.33301 6.36671 7.33301 6.00004V4.66671H8.66634C9.39967 4.66671 9.99967 4.06671 9.99967 3.33337V3.06004C11.953 3.85337 13.333 5.76671 13.333 8.00004C13.333 9.38671 12.7997 10.6467 11.933 11.5934Z" fill="white"/>
</svg>
