<svg width="20" height="16" viewBox="0 0 20 16" fill="none" xmlns="http://www.w3.org/2000/svg">
<path d="M10.0007 3.41722C12.3006 3.41722 14.1673 5.28389 14.1673 7.58389C14.1673 8.00889 14.084 8.41722 13.9673 8.80055L16.5173 11.3506C17.6756 10.3256 18.5923 9.04222 19.1673 7.57555C17.7256 3.92555 14.1673 1.33389 10.0007 1.33389C8.94232 1.33389 7.92565 1.50055 6.96732 1.80889L8.77565 3.61722C9.16732 3.50055 9.57565 3.41722 10.0007 3.41722ZM2.25898 0.633887C1.93398 0.958887 1.93398 1.48389 2.25898 1.80889L3.90065 3.45055C2.55065 4.52555 1.47565 5.94222 0.833984 7.58389C2.27565 11.2422 5.83398 13.8339 10.0007 13.8339C11.2673 13.8339 12.4756 13.5839 13.5923 13.1506L15.859 15.4172C16.184 15.7422 16.709 15.7422 17.034 15.4172C17.359 15.0922 17.359 14.5672 17.034 14.2422L3.44232 0.633887C3.11732 0.308887 2.58398 0.308887 2.25898 0.633887ZM10.0007 11.7506C7.70065 11.7506 5.83398 9.88389 5.83398 7.58389C5.83398 6.94222 5.98398 6.33389 6.24232 5.80055L7.55065 7.10889C7.52565 7.25889 7.50065 7.41722 7.50065 7.58389C7.50065 8.96722 8.61732 10.0839 10.0007 10.0839C10.1673 10.0839 10.3173 10.0589 10.4756 10.0256L11.784 11.3339C11.2423 11.6006 10.6423 11.7506 10.0007 11.7506ZM12.4757 7.30889C12.3507 6.14222 11.434 5.23389 10.2757 5.10889L12.4757 7.30889Z" fill="#141414"/>
</svg>
