<svg width="375" height="210" viewBox="0 0 375 210" fill="none" xmlns="http://www.w3.org/2000/svg">
<g clip-path="url(#clip0_98628_218957)">
<path fill-rule="evenodd" clip-rule="evenodd" d="M145.786 112.209C171.645 87.2295 187.696 52.7827 187.696 14.901L187.699 -90H211.883L211.886 14.901C211.886 33.3483 214.918 54.9673 220.472 71.72C226.028 54.9673 229.06 33.3483 229.06 14.901L229.062 -90H253.246L253.249 14.901C253.249 52.7827 269.3 87.2295 295.16 112.209C310.587 127.112 329.505 138.639 350.582 145.518V169.984C322.824 162.369 297.956 147.949 278.06 128.73C263.108 114.285 250.964 97.1275 242.505 78.1139C236.192 94.5896 229.226 110.19 220.529 122.07L220.472 122.149L220.416 122.07C211.718 110.19 204.752 94.5896 198.441 78.1139C189.981 97.1275 177.838 114.285 162.885 128.73C142.99 147.949 118.122 162.369 90.3628 169.984V145.518C111.441 138.639 130.357 127.112 145.786 112.209ZM231.456 137.167C236.612 143.522 242.16 149.568 248.063 155.271C275.683 181.953 311.08 201.121 350.582 209.252V185.286C317.765 177.568 288.362 161.162 265.164 138.753C257.547 131.396 250.599 123.391 244.42 114.835L231.456 137.167ZM322.459 83.6148C303.613 65.4096 291.915 40.3086 291.915 12.7082V-10.9285H267.728V12.7082C267.728 46.759 282.14 77.7062 305.359 100.135C318.088 112.431 333.472 122.172 350.582 128.463V103.021C340.117 98.0829 330.619 91.4964 322.459 83.6148ZM149.03 -10.9285H173.216V12.7082C173.216 46.759 158.805 77.7062 135.588 100.135C122.857 112.431 107.473 122.172 90.3628 128.463V103.021C100.828 98.0829 110.327 91.4964 118.486 83.6148C137.332 65.4096 149.03 40.3086 149.03 12.7082V-10.9285ZM175.782 138.753C183.398 131.396 190.346 123.391 196.525 114.835L209.49 137.167C204.334 143.522 198.785 149.568 192.882 155.271C165.263 181.953 129.865 201.121 90.3628 209.252V185.286C123.18 177.568 152.583 161.162 175.782 138.753Z" fill="white"/>
</g>
<rect x="350.634" y="102.953" width="145.417" height="25.4335" fill="url(#paint0_linear_98628_218957)"/>
<rect width="145.417" height="25.4661" transform="matrix(-1 0 0 1 91.4165 102.96)" fill="url(#paint1_linear_98628_218957)"/>
<rect x="350.634" y="145.459" width="145.417" height="24.3168" fill="url(#paint2_linear_98628_218957)"/>
<rect width="145.417" height="24.4612" transform="matrix(-1 0 0 1 91.4165 145.463)" fill="url(#paint3_linear_98628_218957)"/>
<defs>
<linearGradient id="paint0_linear_98628_218957" x1="350.634" y1="115.871" x2="496.051" y2="115.871" gradientUnits="userSpaceOnUse">
<stop stop-color="white"/>
<stop offset="0.5" stop-color="white" stop-opacity="0"/>
</linearGradient>
<linearGradient id="paint1_linear_98628_218957" x1="-1.9719e-07" y1="12.9352" x2="145.417" y2="12.9352" gradientUnits="userSpaceOnUse">
<stop stop-color="white"/>
<stop offset="0.46875" stop-color="white" stop-opacity="0"/>
</linearGradient>
<linearGradient id="paint2_linear_98628_218957" x1="350.634" y1="157.81" x2="496.051" y2="157.81" gradientUnits="userSpaceOnUse">
<stop stop-color="white"/>
<stop offset="0.5" stop-color="white" stop-opacity="0"/>
</linearGradient>
<linearGradient id="paint3_linear_98628_218957" x1="-1.9719e-07" y1="12.4247" x2="145.417" y2="12.4247" gradientUnits="userSpaceOnUse">
<stop stop-color="white"/>
<stop offset="0.46875" stop-color="white" stop-opacity="0"/>
</linearGradient>
<clipPath id="clip0_98628_218957">
<rect width="260.219" height="299.252" fill="white" transform="translate(90.3628 -90)"/>
</clipPath>
</defs>
</svg>
