<svg width="1060" height="782" viewBox="0 0 1060 782" fill="none" xmlns="http://www.w3.org/2000/svg">
<path fill-rule="evenodd" clip-rule="evenodd" d="M524.83 528.409C592.406 463.133 634.349 373.117 634.349 274.125L634.357 0H697.553L697.562 274.125C697.562 322.331 705.485 378.826 720 422.604C734.518 378.826 742.441 322.331 742.441 274.125L742.447 0H805.643L805.652 274.125C805.652 373.117 847.595 463.133 915.172 528.409C955.486 567.354 990 597.773 1060 615.45V679C981.5 666.5 922.478 621.803 870.487 571.58C831.415 533.832 799.679 488.998 777.574 439.312C761.079 482.366 742.876 523.134 720.148 554.177L720 554.383L719.852 554.177C697.124 523.134 678.921 482.366 662.428 439.312C640.321 488.998 608.588 533.832 569.515 571.58C517.524 621.803 472 664 380 679.385V615.45C454 602.5 484.513 567.354 524.83 528.409ZM748.701 593.628C762.176 610.235 776.673 626.034 792.098 640.938C864.275 710.661 958 776 1060 782V719.373C997 713 897.407 656.332 836.786 597.773C816.882 578.547 798.727 557.629 782.58 535.27L748.701 593.628ZM986.508 453.687C937.262 406.113 906.693 340.52 906.693 268.395V206.628H843.487V268.395C843.487 357.376 881.148 438.247 941.823 496.856C975.088 528.99 1004.5 555 1060 570.883V504.399C1013.5 485.5 1007.83 474.283 986.508 453.687ZM533.308 206.628H596.511V268.395C596.511 357.376 558.851 438.247 498.181 496.856C464.913 528.99 439.5 557.5 380 570.883V504.399C427.5 490.5 432.169 474.283 453.491 453.687C502.74 406.113 533.308 340.52 533.308 268.395V206.628ZM603.215 597.773C623.119 578.547 641.274 557.629 657.421 535.27L691.302 593.628C677.826 610.235 663.328 626.034 647.901 640.938C575.727 710.661 487.5 770 380 782V719.373C468 702.5 542.592 656.332 603.215 597.773Z" fill="white"/>
<rect width="380" height="66.5475" transform="matrix(-1 0 0 1 380 504.4)" fill="url(#paint0_linear_98628_218951)"/>
<defs>
<linearGradient id="paint0_linear_98628_218951" x1="-5.15294e-07" y1="33.8019" x2="380" y2="33.8019" gradientUnits="userSpaceOnUse">
<stop stop-color="white"/>
<stop offset="1" stop-color="white" stop-opacity="0"/>
</linearGradient>
</defs>
</svg>
